<svg xmlns="http://www.w3.org/2000/svg" xmlns:xlink="http://www.w3.org/1999/xlink" id="body_1" width="114" height="72">

<g transform="matrix(0.34650457 0 0 0.34650457 -0 23.525839)">
    <path d="M-10 -13L340 -13L340 83L-10 83L-10 -13zM336 -10L-6 -10L-6 80L336 80z" stroke="none" fill="#000000" fill-rule="nonzero" />
    <path d="M-1 -4L165 -4L165 74L-1 74L-1 -4zM24.9 21L18 21L18 34C 18 44.9 18.2 47 19.5 47C 20.6 47 21 45.8 21 42.5C 21 38.2 21.1 38 24 38C 26.5 38 27.6 38.9 30.2 42.5C 32 45.1 34.2 47 35.3 47C 37.3 47 37.1 46.4 33.399998 41.3L33.399998 41.3L30.999998 38.1L34.1 35C 36.8 32.3 37.199997 31.4 36.699997 28.2C 36.299995 26.2 35.1 23.7 33.899998 22.7C 32.3 21.5 29.999998 21 24.899998 21zM54 21L46 21L46 47L54.5 47C 61.4 47 63 46.7 63 45.5C 63 44.3 61.6 44 56.5 44L56.5 44L50 44L50 35L55.5 35C 59.7 35 61 34.7 61 33.5C 61 32.3 59.7 32 55.5 32L55.5 32L50 32L50 24L56 24C 60.7 24 62 23.7 62 22.5C 62 21.3 60.4 21 54 21zM80.7 21C 79.7 21 78.6 21.8 78.299995 22.7C 77.899994 23.7 75.7 29.2 73.299995 34.9C 68.49999 46.5 68.399994 47 70.6 47C 71.4 47 72.6 45.6 73.1 44C 74.2 41.1 74.4 41 80.6 41C 86.9 41 87.1 41.1 88.1 44C 88.799995 45.9 89.9 47 91.1 47C 92.9 47 92.9 46.9 91.2 42.7C 90.299995 40.4 87.899994 34.6 86 29.800001C 83.4 23.300001 82 21 80.7 21zM106.899994 21L99.99999 21L99.99999 47.2L107.399994 46.8C 116.399994 46.399998 119.799995 44.3 121.99999 38.199997C 123.299995 34.499996 123.299995 33.499996 121.99999 29.799997C 120.99999 27.099997 119.299995 24.799997 117.09999 23.299997C 114.399994 21.499998 112.29999 20.999998 106.899994 20.999998zM140 21L132 21L132 47L140 47C 146.4 47 148 46.7 148 45.5C 148 44.3 146.6 44 141.5 44L141.5 44L135 44L135 35L141 35C 145.7 35 147 34.7 147 33.5C 147 32.3 145.7 32 141 32L141 32L135 32L135 24L141.5 24C 146.6 24 148 23.7 148 22.5C 148 21.3 146.4 21 140 21z" stroke="none" fill="#000000" fill-rule="nonzero" />
    <path d="M104 34.1L104 44.3L109.2 43.8C 115.899994 43.1 119 39.899998 119 33.5C 119 27.7 114.9 24 108.4 24L108.4 24L104 24L104 34.1z" stroke="none" fill="#000000" fill-rule="nonzero" />
    <path d="M180 21.2C 180 21.900002 181.8 28 184.1 34.7L184.1 34.7L188.20001 47L192.50002 47L196.90001 47L198.6 41.5C 199.6 38.5 200.70001 36 201 36C 201.3 36 202.4 38.5 203.4 41.5L203.4 41.5L205.09999 47L209.49998 47L213.89998 47L217.89998 34.1C 220.19998 26.999998 221.99998 20.899998 221.99998 20.599998C 221.99998 20.3 219.99998 19.999998 217.69998 19.999998L217.69998 19.999998L213.29999 19.999998L211.49998 25.999998C 210.49998 29.299997 209.29999 31.699997 208.99998 31.3C 208.59999 30.9 207.49998 28.099998 206.49998 25.199999L206.49998 25.199999L204.79999 19.899998L200.69998 20.199997C 196.69998 20.499996 196.59998 20.599997 194.59998 26.499996L194.59998 26.499996L192.59998 32.499996L190.59998 26.199997L188.59998 19.999996L184.29997 19.999996C 181.49997 19.999996 179.99997 20.399996 179.99997 21.199997L179.99997 21.199997L180 21.2z" stroke="none" fill="#000000" fill-rule="nonzero" />
    <path d="M224 33.4L224 47L228.5 47C 233 47 233 47 233 43.5C 233 41.6 233.4 40 233.8 40C 234.3 40 235.40001 41.6 236.3 43.5C 237.90001 46.8 238.2 47 243 47L243 47L248 47L246 43C 244.1 39.3 244.1 38.7 245.5 36.7C 246.3 35.5 247 32.5 247 30C 247 26.3 246.5 24.8 244.4 22.9C 242.2 20.8 240.7 20.5 232.9 20.199999L232.9 20.199999L224 19.8L224 33.4z" stroke="none" fill="#000000" fill-rule="nonzero" />
    <path d="M249 21.1C 249 21.7 251 25.8 253.5 30.2C 256.9 36.3 258 39.300003 258 42.6L258 42.6L258 47L262.5 47L267 47L267 42.1C 267 38.199997 267.9 35.699997 271.5 29.399998C 275.6 22.099998 276 21.799997 276 24.699997C 276 27.899998 276.2 27.999996 280 27.999996L280 27.999996L284 27.999996L284 37.499996L284 46.999996L288.5 46.999996L293 46.999996L293 37.499996L293 27.999996L297 27.999996L301 27.999996L301 23.999996L301 19.999996L283.7 19.999996L266.40002 19.999996L264.40002 24.199997L262.30002 28.399998L260.00003 24.199997C 257.80002 20.299997 257.30002 19.999996 253.30003 19.999996C 250.80003 19.999996 249.00003 20.499996 249.00003 21.099997L249.00003 21.099997L249 21.1z" stroke="none" fill="#000000" fill-rule="nonzero" />
    <path d="M304 33.5L304 47L313.5 47L323 47L323 43.5L323 40L317.5 40C 313.3 40 312 39.7 312 38.5C 312 37.4 313.2 37 317 37L317 37L322 37L322 33.5L322 30L317 30C 313.2 30 312 29.6 312 28.5C 312 27.3 313.3 27 317.5 27L317.5 27L323 27L323 23.5L323 20L313.5 20L304 20L304 33.5z" stroke="none" fill="#000000" fill-rule="nonzero" />
</g>
</svg>